<mxfile host="app.diagrams.net" modified="2023-10-01T07:33:41.361Z" agent="Mozilla/5.0 (Windows NT 10.0; Win64; x64) AppleWebKit/537.36 (KHTML, like Gecko) Chrome/117.0.0.0 Safari/537.36" etag="aBDTF1xdR1lHZgG_Wbbw" version="22.0.0" type="device">
  <diagram name="Trang-1" id="ZPdU82tGEfJm2v0xorDK">
    <mxGraphModel dx="1781" dy="602" grid="1" gridSize="10" guides="1" tooltips="1" connect="1" arrows="1" fold="1" page="1" pageScale="1" pageWidth="827" pageHeight="1169" math="0" shadow="0">
      <root>
        <mxCell id="0" />
        <mxCell id="1" parent="0" />
        <mxCell id="BXSqrhUL6-4AqQqkL2Um-70" value="6 , 9 , 5 , 4 , 12 , 18 , 1, 7 , 8 , 11" style="text;html=1;strokeColor=none;fillColor=none;align=center;verticalAlign=middle;whiteSpace=wrap;rounded=0;" parent="1" vertex="1">
          <mxGeometry x="128" y="60" width="390" height="30" as="geometry" />
        </mxCell>
        <mxCell id="JB43rIkyLXnSicfYQR83-11" style="edgeStyle=orthogonalEdgeStyle;rounded=0;orthogonalLoop=1;jettySize=auto;html=1;exitX=1;exitY=0.5;exitDx=0;exitDy=0;entryX=0.5;entryY=0;entryDx=0;entryDy=0;" edge="1" parent="1" source="BXSqrhUL6-4AqQqkL2Um-72" target="JB43rIkyLXnSicfYQR83-3">
          <mxGeometry relative="1" as="geometry" />
        </mxCell>
        <mxCell id="BXSqrhUL6-4AqQqkL2Um-72" value="18" style="ellipse;whiteSpace=wrap;html=1;" parent="1" vertex="1">
          <mxGeometry x="210" y="140" width="40" height="30" as="geometry" />
        </mxCell>
        <mxCell id="BXSqrhUL6-4AqQqkL2Um-185" value="A" style="text;html=1;strokeColor=none;fillColor=none;align=center;verticalAlign=middle;whiteSpace=wrap;rounded=0;" parent="1" vertex="1">
          <mxGeometry y="110" width="60" height="30" as="geometry" />
        </mxCell>
        <mxCell id="JB43rIkyLXnSicfYQR83-18" style="edgeStyle=orthogonalEdgeStyle;rounded=0;orthogonalLoop=1;jettySize=auto;html=1;exitX=0.5;exitY=1;exitDx=0;exitDy=0;" edge="1" parent="1" source="JB43rIkyLXnSicfYQR83-1" target="JB43rIkyLXnSicfYQR83-9">
          <mxGeometry relative="1" as="geometry" />
        </mxCell>
        <mxCell id="JB43rIkyLXnSicfYQR83-1" value="9" style="ellipse;whiteSpace=wrap;html=1;" vertex="1" parent="1">
          <mxGeometry x="190" y="250" width="40" height="30" as="geometry" />
        </mxCell>
        <mxCell id="JB43rIkyLXnSicfYQR83-12" style="edgeStyle=orthogonalEdgeStyle;rounded=0;orthogonalLoop=1;jettySize=auto;html=1;exitX=0;exitY=0.5;exitDx=0;exitDy=0;entryX=0;entryY=0;entryDx=0;entryDy=0;" edge="1" parent="1" source="JB43rIkyLXnSicfYQR83-2" target="JB43rIkyLXnSicfYQR83-5">
          <mxGeometry relative="1" as="geometry" />
        </mxCell>
        <mxCell id="JB43rIkyLXnSicfYQR83-13" style="edgeStyle=orthogonalEdgeStyle;rounded=0;orthogonalLoop=1;jettySize=auto;html=1;exitX=1;exitY=0.5;exitDx=0;exitDy=0;entryX=1;entryY=0;entryDx=0;entryDy=0;" edge="1" parent="1" source="JB43rIkyLXnSicfYQR83-2" target="JB43rIkyLXnSicfYQR83-1">
          <mxGeometry relative="1" as="geometry" />
        </mxCell>
        <mxCell id="JB43rIkyLXnSicfYQR83-2" value="11" style="ellipse;whiteSpace=wrap;html=1;" vertex="1" parent="1">
          <mxGeometry x="150" y="190" width="40" height="30" as="geometry" />
        </mxCell>
        <mxCell id="JB43rIkyLXnSicfYQR83-14" style="edgeStyle=orthogonalEdgeStyle;rounded=0;orthogonalLoop=1;jettySize=auto;html=1;exitX=0;exitY=1;exitDx=0;exitDy=0;" edge="1" parent="1" source="JB43rIkyLXnSicfYQR83-3" target="JB43rIkyLXnSicfYQR83-8">
          <mxGeometry relative="1" as="geometry" />
        </mxCell>
        <mxCell id="JB43rIkyLXnSicfYQR83-15" style="edgeStyle=orthogonalEdgeStyle;rounded=0;orthogonalLoop=1;jettySize=auto;html=1;exitX=1;exitY=0.5;exitDx=0;exitDy=0;entryX=0.5;entryY=0;entryDx=0;entryDy=0;" edge="1" parent="1" source="JB43rIkyLXnSicfYQR83-3" target="JB43rIkyLXnSicfYQR83-7">
          <mxGeometry relative="1" as="geometry" />
        </mxCell>
        <mxCell id="JB43rIkyLXnSicfYQR83-3" value="12" style="ellipse;whiteSpace=wrap;html=1;" vertex="1" parent="1">
          <mxGeometry x="280" y="190" width="40" height="30" as="geometry" />
        </mxCell>
        <mxCell id="JB43rIkyLXnSicfYQR83-4" value="4" style="ellipse;whiteSpace=wrap;html=1;" vertex="1" parent="1">
          <mxGeometry x="40" y="300" width="40" height="30" as="geometry" />
        </mxCell>
        <mxCell id="JB43rIkyLXnSicfYQR83-16" style="edgeStyle=orthogonalEdgeStyle;rounded=0;orthogonalLoop=1;jettySize=auto;html=1;exitX=0;exitY=0.5;exitDx=0;exitDy=0;entryX=0.5;entryY=0;entryDx=0;entryDy=0;" edge="1" parent="1" source="JB43rIkyLXnSicfYQR83-5" target="JB43rIkyLXnSicfYQR83-4">
          <mxGeometry relative="1" as="geometry" />
        </mxCell>
        <mxCell id="JB43rIkyLXnSicfYQR83-17" style="edgeStyle=orthogonalEdgeStyle;rounded=0;orthogonalLoop=1;jettySize=auto;html=1;exitX=1;exitY=0.5;exitDx=0;exitDy=0;" edge="1" parent="1" source="JB43rIkyLXnSicfYQR83-5" target="JB43rIkyLXnSicfYQR83-6">
          <mxGeometry relative="1" as="geometry" />
        </mxCell>
        <mxCell id="JB43rIkyLXnSicfYQR83-5" value="8" style="ellipse;whiteSpace=wrap;html=1;" vertex="1" parent="1">
          <mxGeometry x="88" y="250" width="40" height="30" as="geometry" />
        </mxCell>
        <mxCell id="JB43rIkyLXnSicfYQR83-6" value="7" style="ellipse;whiteSpace=wrap;html=1;" vertex="1" parent="1">
          <mxGeometry x="128" y="300" width="40" height="30" as="geometry" />
        </mxCell>
        <mxCell id="JB43rIkyLXnSicfYQR83-7" value="1" style="ellipse;whiteSpace=wrap;html=1;" vertex="1" parent="1">
          <mxGeometry x="330" y="250" width="40" height="30" as="geometry" />
        </mxCell>
        <mxCell id="JB43rIkyLXnSicfYQR83-8" value="5" style="ellipse;whiteSpace=wrap;html=1;" vertex="1" parent="1">
          <mxGeometry x="250" y="250" width="40" height="30" as="geometry" />
        </mxCell>
        <mxCell id="JB43rIkyLXnSicfYQR83-9" value="6" style="ellipse;whiteSpace=wrap;html=1;" vertex="1" parent="1">
          <mxGeometry x="200" y="300" width="40" height="30" as="geometry" />
        </mxCell>
        <mxCell id="JB43rIkyLXnSicfYQR83-10" style="edgeStyle=orthogonalEdgeStyle;rounded=0;orthogonalLoop=1;jettySize=auto;html=1;exitX=0;exitY=0.5;exitDx=0;exitDy=0;entryX=0.35;entryY=-0.05;entryDx=0;entryDy=0;entryPerimeter=0;" edge="1" parent="1" source="BXSqrhUL6-4AqQqkL2Um-72" target="JB43rIkyLXnSicfYQR83-2">
          <mxGeometry relative="1" as="geometry" />
        </mxCell>
        <mxCell id="JB43rIkyLXnSicfYQR83-19" value="6" style="ellipse;whiteSpace=wrap;html=1;" vertex="1" parent="1">
          <mxGeometry x="50" y="440" width="40" height="30" as="geometry" />
        </mxCell>
        <mxCell id="JB43rIkyLXnSicfYQR83-20" value="B" style="text;html=1;strokeColor=none;fillColor=none;align=center;verticalAlign=middle;whiteSpace=wrap;rounded=0;" vertex="1" parent="1">
          <mxGeometry y="380" width="60" height="30" as="geometry" />
        </mxCell>
        <mxCell id="JB43rIkyLXnSicfYQR83-24" style="edgeStyle=orthogonalEdgeStyle;rounded=0;orthogonalLoop=1;jettySize=auto;html=1;exitX=0;exitY=0.5;exitDx=0;exitDy=0;" edge="1" parent="1" source="JB43rIkyLXnSicfYQR83-21" target="JB43rIkyLXnSicfYQR83-23">
          <mxGeometry relative="1" as="geometry" />
        </mxCell>
        <mxCell id="JB43rIkyLXnSicfYQR83-21" value="9" style="ellipse;whiteSpace=wrap;html=1;" vertex="1" parent="1">
          <mxGeometry x="200" y="440" width="40" height="30" as="geometry" />
        </mxCell>
        <mxCell id="JB43rIkyLXnSicfYQR83-22" value="" style="shape=flexArrow;endArrow=classic;html=1;rounded=0;" edge="1" parent="1">
          <mxGeometry width="50" height="50" relative="1" as="geometry">
            <mxPoint x="118" y="454.5" as="sourcePoint" />
            <mxPoint x="168" y="454.5" as="targetPoint" />
          </mxGeometry>
        </mxCell>
        <mxCell id="JB43rIkyLXnSicfYQR83-23" value="6" style="ellipse;whiteSpace=wrap;html=1;" vertex="1" parent="1">
          <mxGeometry x="160" y="500" width="40" height="30" as="geometry" />
        </mxCell>
        <mxCell id="JB43rIkyLXnSicfYQR83-25" style="edgeStyle=orthogonalEdgeStyle;rounded=0;orthogonalLoop=1;jettySize=auto;html=1;exitX=0;exitY=0.5;exitDx=0;exitDy=0;" edge="1" parent="1" source="JB43rIkyLXnSicfYQR83-26" target="JB43rIkyLXnSicfYQR83-28">
          <mxGeometry relative="1" as="geometry" />
        </mxCell>
        <mxCell id="JB43rIkyLXnSicfYQR83-30" style="edgeStyle=orthogonalEdgeStyle;rounded=0;orthogonalLoop=1;jettySize=auto;html=1;exitX=1;exitY=0.5;exitDx=0;exitDy=0;entryX=0.5;entryY=0;entryDx=0;entryDy=0;" edge="1" parent="1" source="JB43rIkyLXnSicfYQR83-26" target="JB43rIkyLXnSicfYQR83-29">
          <mxGeometry relative="1" as="geometry" />
        </mxCell>
        <mxCell id="JB43rIkyLXnSicfYQR83-26" value="9" style="ellipse;whiteSpace=wrap;html=1;" vertex="1" parent="1">
          <mxGeometry x="344" y="440" width="40" height="30" as="geometry" />
        </mxCell>
        <mxCell id="JB43rIkyLXnSicfYQR83-27" value="" style="shape=flexArrow;endArrow=classic;html=1;rounded=0;" edge="1" parent="1">
          <mxGeometry width="50" height="50" relative="1" as="geometry">
            <mxPoint x="262" y="454.5" as="sourcePoint" />
            <mxPoint x="312" y="454.5" as="targetPoint" />
          </mxGeometry>
        </mxCell>
        <mxCell id="JB43rIkyLXnSicfYQR83-28" value="6" style="ellipse;whiteSpace=wrap;html=1;" vertex="1" parent="1">
          <mxGeometry x="304" y="500" width="40" height="30" as="geometry" />
        </mxCell>
        <mxCell id="JB43rIkyLXnSicfYQR83-29" value="5" style="ellipse;whiteSpace=wrap;html=1;" vertex="1" parent="1">
          <mxGeometry x="394" y="500" width="40" height="30" as="geometry" />
        </mxCell>
        <mxCell id="JB43rIkyLXnSicfYQR83-36" style="edgeStyle=orthogonalEdgeStyle;rounded=0;orthogonalLoop=1;jettySize=auto;html=1;exitX=0;exitY=0.5;exitDx=0;exitDy=0;" edge="1" parent="1" source="JB43rIkyLXnSicfYQR83-38" target="JB43rIkyLXnSicfYQR83-40">
          <mxGeometry relative="1" as="geometry" />
        </mxCell>
        <mxCell id="JB43rIkyLXnSicfYQR83-37" style="edgeStyle=orthogonalEdgeStyle;rounded=0;orthogonalLoop=1;jettySize=auto;html=1;exitX=1;exitY=0.5;exitDx=0;exitDy=0;entryX=0.5;entryY=0;entryDx=0;entryDy=0;" edge="1" parent="1" source="JB43rIkyLXnSicfYQR83-38" target="JB43rIkyLXnSicfYQR83-41">
          <mxGeometry relative="1" as="geometry" />
        </mxCell>
        <mxCell id="JB43rIkyLXnSicfYQR83-38" value="9" style="ellipse;whiteSpace=wrap;html=1;" vertex="1" parent="1">
          <mxGeometry x="532" y="440" width="40" height="30" as="geometry" />
        </mxCell>
        <mxCell id="JB43rIkyLXnSicfYQR83-39" value="" style="shape=flexArrow;endArrow=classic;html=1;rounded=0;" edge="1" parent="1">
          <mxGeometry width="50" height="50" relative="1" as="geometry">
            <mxPoint x="450" y="454.5" as="sourcePoint" />
            <mxPoint x="500" y="454.5" as="targetPoint" />
          </mxGeometry>
        </mxCell>
        <mxCell id="JB43rIkyLXnSicfYQR83-43" style="edgeStyle=orthogonalEdgeStyle;rounded=0;orthogonalLoop=1;jettySize=auto;html=1;exitX=0;exitY=0.5;exitDx=0;exitDy=0;entryX=0.5;entryY=0;entryDx=0;entryDy=0;" edge="1" parent="1" source="JB43rIkyLXnSicfYQR83-40" target="JB43rIkyLXnSicfYQR83-42">
          <mxGeometry relative="1" as="geometry" />
        </mxCell>
        <mxCell id="JB43rIkyLXnSicfYQR83-40" value="6" style="ellipse;whiteSpace=wrap;html=1;" vertex="1" parent="1">
          <mxGeometry x="492" y="500" width="40" height="30" as="geometry" />
        </mxCell>
        <mxCell id="JB43rIkyLXnSicfYQR83-41" value="5" style="ellipse;whiteSpace=wrap;html=1;" vertex="1" parent="1">
          <mxGeometry x="582" y="500" width="40" height="30" as="geometry" />
        </mxCell>
        <mxCell id="JB43rIkyLXnSicfYQR83-42" value="4" style="ellipse;whiteSpace=wrap;html=1;" vertex="1" parent="1">
          <mxGeometry x="450" y="560" width="40" height="30" as="geometry" />
        </mxCell>
        <mxCell id="JB43rIkyLXnSicfYQR83-44" style="edgeStyle=orthogonalEdgeStyle;rounded=0;orthogonalLoop=1;jettySize=auto;html=1;exitX=0;exitY=0.5;exitDx=0;exitDy=0;" edge="1" parent="1" source="JB43rIkyLXnSicfYQR83-46" target="JB43rIkyLXnSicfYQR83-49">
          <mxGeometry relative="1" as="geometry" />
        </mxCell>
        <mxCell id="JB43rIkyLXnSicfYQR83-45" style="edgeStyle=orthogonalEdgeStyle;rounded=0;orthogonalLoop=1;jettySize=auto;html=1;exitX=1;exitY=0.5;exitDx=0;exitDy=0;entryX=0.5;entryY=0;entryDx=0;entryDy=0;" edge="1" parent="1" source="JB43rIkyLXnSicfYQR83-46" target="JB43rIkyLXnSicfYQR83-50">
          <mxGeometry relative="1" as="geometry" />
        </mxCell>
        <mxCell id="JB43rIkyLXnSicfYQR83-46" value="9" style="ellipse;whiteSpace=wrap;html=1;" vertex="1" parent="1">
          <mxGeometry x="732" y="440" width="40" height="30" as="geometry" />
        </mxCell>
        <mxCell id="JB43rIkyLXnSicfYQR83-47" value="" style="shape=flexArrow;endArrow=classic;html=1;rounded=0;" edge="1" parent="1">
          <mxGeometry width="50" height="50" relative="1" as="geometry">
            <mxPoint x="650" y="454.5" as="sourcePoint" />
            <mxPoint x="700" y="454.5" as="targetPoint" />
          </mxGeometry>
        </mxCell>
        <mxCell id="JB43rIkyLXnSicfYQR83-48" style="edgeStyle=orthogonalEdgeStyle;rounded=0;orthogonalLoop=1;jettySize=auto;html=1;exitX=0;exitY=0.5;exitDx=0;exitDy=0;entryX=0.5;entryY=0;entryDx=0;entryDy=0;" edge="1" parent="1" source="JB43rIkyLXnSicfYQR83-49" target="JB43rIkyLXnSicfYQR83-51">
          <mxGeometry relative="1" as="geometry" />
        </mxCell>
        <mxCell id="JB43rIkyLXnSicfYQR83-53" style="edgeStyle=orthogonalEdgeStyle;rounded=0;orthogonalLoop=1;jettySize=auto;html=1;exitX=1;exitY=0.5;exitDx=0;exitDy=0;" edge="1" parent="1" source="JB43rIkyLXnSicfYQR83-49" target="JB43rIkyLXnSicfYQR83-52">
          <mxGeometry relative="1" as="geometry" />
        </mxCell>
        <mxCell id="JB43rIkyLXnSicfYQR83-49" value="12" style="ellipse;whiteSpace=wrap;html=1;" vertex="1" parent="1">
          <mxGeometry x="692" y="500" width="40" height="30" as="geometry" />
        </mxCell>
        <mxCell id="JB43rIkyLXnSicfYQR83-50" value="5" style="ellipse;whiteSpace=wrap;html=1;" vertex="1" parent="1">
          <mxGeometry x="782" y="500" width="40" height="30" as="geometry" />
        </mxCell>
        <mxCell id="JB43rIkyLXnSicfYQR83-51" value="4" style="ellipse;whiteSpace=wrap;html=1;" vertex="1" parent="1">
          <mxGeometry x="650" y="560" width="40" height="30" as="geometry" />
        </mxCell>
        <mxCell id="JB43rIkyLXnSicfYQR83-52" value="6" style="ellipse;whiteSpace=wrap;html=1;" vertex="1" parent="1">
          <mxGeometry x="732" y="560" width="40" height="30" as="geometry" />
        </mxCell>
        <mxCell id="JB43rIkyLXnSicfYQR83-54" style="edgeStyle=orthogonalEdgeStyle;rounded=0;orthogonalLoop=1;jettySize=auto;html=1;exitX=0;exitY=0.5;exitDx=0;exitDy=0;" edge="1" parent="1" source="JB43rIkyLXnSicfYQR83-56" target="JB43rIkyLXnSicfYQR83-60">
          <mxGeometry relative="1" as="geometry" />
        </mxCell>
        <mxCell id="JB43rIkyLXnSicfYQR83-55" style="edgeStyle=orthogonalEdgeStyle;rounded=0;orthogonalLoop=1;jettySize=auto;html=1;exitX=1;exitY=0.5;exitDx=0;exitDy=0;entryX=0.5;entryY=0;entryDx=0;entryDy=0;" edge="1" parent="1" source="JB43rIkyLXnSicfYQR83-56" target="JB43rIkyLXnSicfYQR83-61">
          <mxGeometry relative="1" as="geometry" />
        </mxCell>
        <mxCell id="JB43rIkyLXnSicfYQR83-56" value="12" style="ellipse;whiteSpace=wrap;html=1;" vertex="1" parent="1">
          <mxGeometry x="179" y="620" width="40" height="30" as="geometry" />
        </mxCell>
        <mxCell id="JB43rIkyLXnSicfYQR83-57" value="" style="shape=flexArrow;endArrow=classic;html=1;rounded=0;" edge="1" parent="1">
          <mxGeometry width="50" height="50" relative="1" as="geometry">
            <mxPoint x="51" y="644.5" as="sourcePoint" />
            <mxPoint x="101" y="644.5" as="targetPoint" />
          </mxGeometry>
        </mxCell>
        <mxCell id="JB43rIkyLXnSicfYQR83-58" style="edgeStyle=orthogonalEdgeStyle;rounded=0;orthogonalLoop=1;jettySize=auto;html=1;exitX=0;exitY=0.5;exitDx=0;exitDy=0;entryX=0.5;entryY=0;entryDx=0;entryDy=0;" edge="1" parent="1" source="JB43rIkyLXnSicfYQR83-60" target="JB43rIkyLXnSicfYQR83-62">
          <mxGeometry relative="1" as="geometry" />
        </mxCell>
        <mxCell id="JB43rIkyLXnSicfYQR83-59" style="edgeStyle=orthogonalEdgeStyle;rounded=0;orthogonalLoop=1;jettySize=auto;html=1;exitX=1;exitY=0.5;exitDx=0;exitDy=0;" edge="1" parent="1" source="JB43rIkyLXnSicfYQR83-60" target="JB43rIkyLXnSicfYQR83-63">
          <mxGeometry relative="1" as="geometry" />
        </mxCell>
        <mxCell id="JB43rIkyLXnSicfYQR83-60" value="9" style="ellipse;whiteSpace=wrap;html=1;" vertex="1" parent="1">
          <mxGeometry x="93" y="690" width="40" height="30" as="geometry" />
        </mxCell>
        <mxCell id="JB43rIkyLXnSicfYQR83-65" style="edgeStyle=orthogonalEdgeStyle;rounded=0;orthogonalLoop=1;jettySize=auto;html=1;exitX=0;exitY=0.5;exitDx=0;exitDy=0;entryX=0.5;entryY=0;entryDx=0;entryDy=0;" edge="1" parent="1" source="JB43rIkyLXnSicfYQR83-61" target="JB43rIkyLXnSicfYQR83-64">
          <mxGeometry relative="1" as="geometry" />
        </mxCell>
        <mxCell id="JB43rIkyLXnSicfYQR83-61" value="18" style="ellipse;whiteSpace=wrap;html=1;" vertex="1" parent="1">
          <mxGeometry x="269" y="700" width="40" height="30" as="geometry" />
        </mxCell>
        <mxCell id="JB43rIkyLXnSicfYQR83-62" value="4" style="ellipse;whiteSpace=wrap;html=1;" vertex="1" parent="1">
          <mxGeometry x="51" y="750" width="40" height="30" as="geometry" />
        </mxCell>
        <mxCell id="JB43rIkyLXnSicfYQR83-63" value="6" style="ellipse;whiteSpace=wrap;html=1;" vertex="1" parent="1">
          <mxGeometry x="133" y="750" width="40" height="30" as="geometry" />
        </mxCell>
        <mxCell id="JB43rIkyLXnSicfYQR83-64" value="5" style="ellipse;whiteSpace=wrap;html=1;" vertex="1" parent="1">
          <mxGeometry x="219" y="750" width="40" height="30" as="geometry" />
        </mxCell>
        <mxCell id="JB43rIkyLXnSicfYQR83-66" style="edgeStyle=orthogonalEdgeStyle;rounded=0;orthogonalLoop=1;jettySize=auto;html=1;exitX=0;exitY=0.5;exitDx=0;exitDy=0;" edge="1" parent="1" source="JB43rIkyLXnSicfYQR83-68" target="JB43rIkyLXnSicfYQR83-72">
          <mxGeometry relative="1" as="geometry" />
        </mxCell>
        <mxCell id="JB43rIkyLXnSicfYQR83-67" style="edgeStyle=orthogonalEdgeStyle;rounded=0;orthogonalLoop=1;jettySize=auto;html=1;exitX=1;exitY=0.5;exitDx=0;exitDy=0;entryX=0.5;entryY=0;entryDx=0;entryDy=0;" edge="1" parent="1" source="JB43rIkyLXnSicfYQR83-68" target="JB43rIkyLXnSicfYQR83-74">
          <mxGeometry relative="1" as="geometry" />
        </mxCell>
        <mxCell id="JB43rIkyLXnSicfYQR83-68" value="18" style="ellipse;whiteSpace=wrap;html=1;" vertex="1" parent="1">
          <mxGeometry x="492" y="620" width="40" height="30" as="geometry" />
        </mxCell>
        <mxCell id="JB43rIkyLXnSicfYQR83-69" value="" style="shape=flexArrow;endArrow=classic;html=1;rounded=0;" edge="1" parent="1">
          <mxGeometry width="50" height="50" relative="1" as="geometry">
            <mxPoint x="364" y="644.5" as="sourcePoint" />
            <mxPoint x="414" y="644.5" as="targetPoint" />
          </mxGeometry>
        </mxCell>
        <mxCell id="JB43rIkyLXnSicfYQR83-70" style="edgeStyle=orthogonalEdgeStyle;rounded=0;orthogonalLoop=1;jettySize=auto;html=1;exitX=0;exitY=0.5;exitDx=0;exitDy=0;entryX=0.5;entryY=0;entryDx=0;entryDy=0;" edge="1" parent="1" source="JB43rIkyLXnSicfYQR83-72" target="JB43rIkyLXnSicfYQR83-75">
          <mxGeometry relative="1" as="geometry" />
        </mxCell>
        <mxCell id="JB43rIkyLXnSicfYQR83-71" style="edgeStyle=orthogonalEdgeStyle;rounded=0;orthogonalLoop=1;jettySize=auto;html=1;exitX=1;exitY=0.5;exitDx=0;exitDy=0;" edge="1" parent="1" source="JB43rIkyLXnSicfYQR83-72" target="JB43rIkyLXnSicfYQR83-76">
          <mxGeometry relative="1" as="geometry" />
        </mxCell>
        <mxCell id="JB43rIkyLXnSicfYQR83-72" value="9" style="ellipse;whiteSpace=wrap;html=1;" vertex="1" parent="1">
          <mxGeometry x="406" y="690" width="40" height="30" as="geometry" />
        </mxCell>
        <mxCell id="JB43rIkyLXnSicfYQR83-73" style="edgeStyle=orthogonalEdgeStyle;rounded=0;orthogonalLoop=1;jettySize=auto;html=1;exitX=0;exitY=0.5;exitDx=0;exitDy=0;entryX=0.5;entryY=0;entryDx=0;entryDy=0;" edge="1" parent="1" source="JB43rIkyLXnSicfYQR83-74" target="JB43rIkyLXnSicfYQR83-77">
          <mxGeometry relative="1" as="geometry" />
        </mxCell>
        <mxCell id="JB43rIkyLXnSicfYQR83-79" style="edgeStyle=orthogonalEdgeStyle;rounded=0;orthogonalLoop=1;jettySize=auto;html=1;exitX=1;exitY=0.5;exitDx=0;exitDy=0;entryX=0.5;entryY=0;entryDx=0;entryDy=0;" edge="1" parent="1" source="JB43rIkyLXnSicfYQR83-74" target="JB43rIkyLXnSicfYQR83-78">
          <mxGeometry relative="1" as="geometry" />
        </mxCell>
        <mxCell id="JB43rIkyLXnSicfYQR83-74" value="12" style="ellipse;whiteSpace=wrap;html=1;" vertex="1" parent="1">
          <mxGeometry x="582" y="700" width="40" height="30" as="geometry" />
        </mxCell>
        <mxCell id="JB43rIkyLXnSicfYQR83-75" value="4" style="ellipse;whiteSpace=wrap;html=1;" vertex="1" parent="1">
          <mxGeometry x="364" y="750" width="40" height="30" as="geometry" />
        </mxCell>
        <mxCell id="JB43rIkyLXnSicfYQR83-76" value="6" style="ellipse;whiteSpace=wrap;html=1;" vertex="1" parent="1">
          <mxGeometry x="446" y="750" width="40" height="30" as="geometry" />
        </mxCell>
        <mxCell id="JB43rIkyLXnSicfYQR83-77" value="5" style="ellipse;whiteSpace=wrap;html=1;" vertex="1" parent="1">
          <mxGeometry x="532" y="750" width="40" height="30" as="geometry" />
        </mxCell>
        <mxCell id="JB43rIkyLXnSicfYQR83-78" value="1" style="ellipse;whiteSpace=wrap;html=1;" vertex="1" parent="1">
          <mxGeometry x="622" y="750" width="40" height="30" as="geometry" />
        </mxCell>
        <mxCell id="JB43rIkyLXnSicfYQR83-80" style="edgeStyle=orthogonalEdgeStyle;rounded=0;orthogonalLoop=1;jettySize=auto;html=1;exitX=0;exitY=0.5;exitDx=0;exitDy=0;" edge="1" parent="1" source="JB43rIkyLXnSicfYQR83-82" target="JB43rIkyLXnSicfYQR83-86">
          <mxGeometry relative="1" as="geometry" />
        </mxCell>
        <mxCell id="JB43rIkyLXnSicfYQR83-81" style="edgeStyle=orthogonalEdgeStyle;rounded=0;orthogonalLoop=1;jettySize=auto;html=1;exitX=1;exitY=0.5;exitDx=0;exitDy=0;entryX=0.5;entryY=0;entryDx=0;entryDy=0;" edge="1" parent="1" source="JB43rIkyLXnSicfYQR83-82" target="JB43rIkyLXnSicfYQR83-89">
          <mxGeometry relative="1" as="geometry" />
        </mxCell>
        <mxCell id="JB43rIkyLXnSicfYQR83-82" value="18" style="ellipse;whiteSpace=wrap;html=1;" vertex="1" parent="1">
          <mxGeometry x="838" y="620" width="40" height="30" as="geometry" />
        </mxCell>
        <mxCell id="JB43rIkyLXnSicfYQR83-83" value="" style="shape=flexArrow;endArrow=classic;html=1;rounded=0;" edge="1" parent="1">
          <mxGeometry width="50" height="50" relative="1" as="geometry">
            <mxPoint x="710" y="644.5" as="sourcePoint" />
            <mxPoint x="760" y="644.5" as="targetPoint" />
          </mxGeometry>
        </mxCell>
        <mxCell id="JB43rIkyLXnSicfYQR83-84" style="edgeStyle=orthogonalEdgeStyle;rounded=0;orthogonalLoop=1;jettySize=auto;html=1;exitX=0;exitY=0.5;exitDx=0;exitDy=0;entryX=0.5;entryY=0;entryDx=0;entryDy=0;" edge="1" parent="1" source="JB43rIkyLXnSicfYQR83-86" target="JB43rIkyLXnSicfYQR83-90">
          <mxGeometry relative="1" as="geometry" />
        </mxCell>
        <mxCell id="JB43rIkyLXnSicfYQR83-85" style="edgeStyle=orthogonalEdgeStyle;rounded=0;orthogonalLoop=1;jettySize=auto;html=1;exitX=1;exitY=0.5;exitDx=0;exitDy=0;" edge="1" parent="1" source="JB43rIkyLXnSicfYQR83-86" target="JB43rIkyLXnSicfYQR83-91">
          <mxGeometry relative="1" as="geometry" />
        </mxCell>
        <mxCell id="JB43rIkyLXnSicfYQR83-86" value="9" style="ellipse;whiteSpace=wrap;html=1;" vertex="1" parent="1">
          <mxGeometry x="752" y="690" width="40" height="30" as="geometry" />
        </mxCell>
        <mxCell id="JB43rIkyLXnSicfYQR83-87" style="edgeStyle=orthogonalEdgeStyle;rounded=0;orthogonalLoop=1;jettySize=auto;html=1;exitX=0;exitY=0.5;exitDx=0;exitDy=0;entryX=0.5;entryY=0;entryDx=0;entryDy=0;" edge="1" parent="1" source="JB43rIkyLXnSicfYQR83-89" target="JB43rIkyLXnSicfYQR83-92">
          <mxGeometry relative="1" as="geometry" />
        </mxCell>
        <mxCell id="JB43rIkyLXnSicfYQR83-88" style="edgeStyle=orthogonalEdgeStyle;rounded=0;orthogonalLoop=1;jettySize=auto;html=1;exitX=1;exitY=0.5;exitDx=0;exitDy=0;entryX=0.5;entryY=0;entryDx=0;entryDy=0;" edge="1" parent="1" source="JB43rIkyLXnSicfYQR83-89" target="JB43rIkyLXnSicfYQR83-93">
          <mxGeometry relative="1" as="geometry" />
        </mxCell>
        <mxCell id="JB43rIkyLXnSicfYQR83-89" value="12" style="ellipse;whiteSpace=wrap;html=1;" vertex="1" parent="1">
          <mxGeometry x="928" y="700" width="40" height="30" as="geometry" />
        </mxCell>
        <mxCell id="JB43rIkyLXnSicfYQR83-95" style="edgeStyle=orthogonalEdgeStyle;rounded=0;orthogonalLoop=1;jettySize=auto;html=1;exitX=0;exitY=0.5;exitDx=0;exitDy=0;entryX=0.5;entryY=0;entryDx=0;entryDy=0;" edge="1" parent="1" source="JB43rIkyLXnSicfYQR83-90" target="JB43rIkyLXnSicfYQR83-94">
          <mxGeometry relative="1" as="geometry" />
        </mxCell>
        <mxCell id="JB43rIkyLXnSicfYQR83-90" value="7" style="ellipse;whiteSpace=wrap;html=1;" vertex="1" parent="1">
          <mxGeometry x="710" y="750" width="40" height="30" as="geometry" />
        </mxCell>
        <mxCell id="JB43rIkyLXnSicfYQR83-91" value="6" style="ellipse;whiteSpace=wrap;html=1;" vertex="1" parent="1">
          <mxGeometry x="792" y="750" width="40" height="30" as="geometry" />
        </mxCell>
        <mxCell id="JB43rIkyLXnSicfYQR83-92" value="5" style="ellipse;whiteSpace=wrap;html=1;" vertex="1" parent="1">
          <mxGeometry x="878" y="750" width="40" height="30" as="geometry" />
        </mxCell>
        <mxCell id="JB43rIkyLXnSicfYQR83-93" value="1" style="ellipse;whiteSpace=wrap;html=1;" vertex="1" parent="1">
          <mxGeometry x="968" y="750" width="40" height="30" as="geometry" />
        </mxCell>
        <mxCell id="JB43rIkyLXnSicfYQR83-94" value="4" style="ellipse;whiteSpace=wrap;html=1;" vertex="1" parent="1">
          <mxGeometry x="662" y="810" width="40" height="30" as="geometry" />
        </mxCell>
        <mxCell id="JB43rIkyLXnSicfYQR83-96" style="edgeStyle=orthogonalEdgeStyle;rounded=0;orthogonalLoop=1;jettySize=auto;html=1;exitX=0;exitY=0.5;exitDx=0;exitDy=0;" edge="1" parent="1" source="JB43rIkyLXnSicfYQR83-98" target="JB43rIkyLXnSicfYQR83-102">
          <mxGeometry relative="1" as="geometry" />
        </mxCell>
        <mxCell id="JB43rIkyLXnSicfYQR83-97" style="edgeStyle=orthogonalEdgeStyle;rounded=0;orthogonalLoop=1;jettySize=auto;html=1;exitX=1;exitY=0.5;exitDx=0;exitDy=0;entryX=0.5;entryY=0;entryDx=0;entryDy=0;" edge="1" parent="1" source="JB43rIkyLXnSicfYQR83-98" target="JB43rIkyLXnSicfYQR83-105">
          <mxGeometry relative="1" as="geometry" />
        </mxCell>
        <mxCell id="JB43rIkyLXnSicfYQR83-98" value="18" style="ellipse;whiteSpace=wrap;html=1;" vertex="1" parent="1">
          <mxGeometry x="200" y="900" width="40" height="30" as="geometry" />
        </mxCell>
        <mxCell id="JB43rIkyLXnSicfYQR83-99" value="" style="shape=flexArrow;endArrow=classic;html=1;rounded=0;" edge="1" parent="1">
          <mxGeometry width="50" height="50" relative="1" as="geometry">
            <mxPoint x="72" y="924.5" as="sourcePoint" />
            <mxPoint x="122" y="924.5" as="targetPoint" />
          </mxGeometry>
        </mxCell>
        <mxCell id="JB43rIkyLXnSicfYQR83-100" style="edgeStyle=orthogonalEdgeStyle;rounded=0;orthogonalLoop=1;jettySize=auto;html=1;exitX=0;exitY=0.5;exitDx=0;exitDy=0;entryX=0.5;entryY=0;entryDx=0;entryDy=0;" edge="1" parent="1" source="JB43rIkyLXnSicfYQR83-102" target="JB43rIkyLXnSicfYQR83-107">
          <mxGeometry relative="1" as="geometry" />
        </mxCell>
        <mxCell id="JB43rIkyLXnSicfYQR83-101" style="edgeStyle=orthogonalEdgeStyle;rounded=0;orthogonalLoop=1;jettySize=auto;html=1;exitX=1;exitY=0.5;exitDx=0;exitDy=0;" edge="1" parent="1" source="JB43rIkyLXnSicfYQR83-102" target="JB43rIkyLXnSicfYQR83-108">
          <mxGeometry relative="1" as="geometry" />
        </mxCell>
        <mxCell id="JB43rIkyLXnSicfYQR83-102" value="9" style="ellipse;whiteSpace=wrap;html=1;" vertex="1" parent="1">
          <mxGeometry x="114" y="970" width="40" height="30" as="geometry" />
        </mxCell>
        <mxCell id="JB43rIkyLXnSicfYQR83-103" style="edgeStyle=orthogonalEdgeStyle;rounded=0;orthogonalLoop=1;jettySize=auto;html=1;exitX=0;exitY=0.5;exitDx=0;exitDy=0;entryX=0.5;entryY=0;entryDx=0;entryDy=0;" edge="1" parent="1" source="JB43rIkyLXnSicfYQR83-105" target="JB43rIkyLXnSicfYQR83-109">
          <mxGeometry relative="1" as="geometry" />
        </mxCell>
        <mxCell id="JB43rIkyLXnSicfYQR83-104" style="edgeStyle=orthogonalEdgeStyle;rounded=0;orthogonalLoop=1;jettySize=auto;html=1;exitX=1;exitY=0.5;exitDx=0;exitDy=0;entryX=0.5;entryY=0;entryDx=0;entryDy=0;" edge="1" parent="1" source="JB43rIkyLXnSicfYQR83-105" target="JB43rIkyLXnSicfYQR83-110">
          <mxGeometry relative="1" as="geometry" />
        </mxCell>
        <mxCell id="JB43rIkyLXnSicfYQR83-105" value="12" style="ellipse;whiteSpace=wrap;html=1;" vertex="1" parent="1">
          <mxGeometry x="290" y="980" width="40" height="30" as="geometry" />
        </mxCell>
        <mxCell id="JB43rIkyLXnSicfYQR83-106" style="edgeStyle=orthogonalEdgeStyle;rounded=0;orthogonalLoop=1;jettySize=auto;html=1;exitX=0;exitY=0.5;exitDx=0;exitDy=0;entryX=0.5;entryY=0;entryDx=0;entryDy=0;" edge="1" parent="1" source="JB43rIkyLXnSicfYQR83-107" target="JB43rIkyLXnSicfYQR83-111">
          <mxGeometry relative="1" as="geometry" />
        </mxCell>
        <mxCell id="JB43rIkyLXnSicfYQR83-113" style="edgeStyle=orthogonalEdgeStyle;rounded=0;orthogonalLoop=1;jettySize=auto;html=1;exitX=1;exitY=0.5;exitDx=0;exitDy=0;entryX=0.5;entryY=0;entryDx=0;entryDy=0;" edge="1" parent="1" source="JB43rIkyLXnSicfYQR83-107" target="JB43rIkyLXnSicfYQR83-112">
          <mxGeometry relative="1" as="geometry" />
        </mxCell>
        <mxCell id="JB43rIkyLXnSicfYQR83-107" value="8" style="ellipse;whiteSpace=wrap;html=1;" vertex="1" parent="1">
          <mxGeometry x="72" y="1030" width="40" height="30" as="geometry" />
        </mxCell>
        <mxCell id="JB43rIkyLXnSicfYQR83-108" value="6" style="ellipse;whiteSpace=wrap;html=1;" vertex="1" parent="1">
          <mxGeometry x="154" y="1030" width="40" height="30" as="geometry" />
        </mxCell>
        <mxCell id="JB43rIkyLXnSicfYQR83-109" value="5" style="ellipse;whiteSpace=wrap;html=1;" vertex="1" parent="1">
          <mxGeometry x="240" y="1030" width="40" height="30" as="geometry" />
        </mxCell>
        <mxCell id="JB43rIkyLXnSicfYQR83-110" value="1" style="ellipse;whiteSpace=wrap;html=1;" vertex="1" parent="1">
          <mxGeometry x="330" y="1030" width="40" height="30" as="geometry" />
        </mxCell>
        <mxCell id="JB43rIkyLXnSicfYQR83-111" value="4" style="ellipse;whiteSpace=wrap;html=1;" vertex="1" parent="1">
          <mxGeometry x="24" y="1090" width="40" height="30" as="geometry" />
        </mxCell>
        <mxCell id="JB43rIkyLXnSicfYQR83-112" value="7" style="ellipse;whiteSpace=wrap;html=1;" vertex="1" parent="1">
          <mxGeometry x="106" y="1090" width="40" height="30" as="geometry" />
        </mxCell>
        <mxCell id="JB43rIkyLXnSicfYQR83-132" style="edgeStyle=orthogonalEdgeStyle;rounded=0;orthogonalLoop=1;jettySize=auto;html=1;exitX=0;exitY=0.5;exitDx=0;exitDy=0;" edge="1" parent="1" source="JB43rIkyLXnSicfYQR83-134" target="JB43rIkyLXnSicfYQR83-138">
          <mxGeometry relative="1" as="geometry" />
        </mxCell>
        <mxCell id="JB43rIkyLXnSicfYQR83-133" style="edgeStyle=orthogonalEdgeStyle;rounded=0;orthogonalLoop=1;jettySize=auto;html=1;exitX=1;exitY=0.5;exitDx=0;exitDy=0;entryX=0.5;entryY=0;entryDx=0;entryDy=0;" edge="1" parent="1" source="JB43rIkyLXnSicfYQR83-134" target="JB43rIkyLXnSicfYQR83-141">
          <mxGeometry relative="1" as="geometry" />
        </mxCell>
        <mxCell id="JB43rIkyLXnSicfYQR83-134" value="18" style="ellipse;whiteSpace=wrap;html=1;" vertex="1" parent="1">
          <mxGeometry x="602" y="910" width="40" height="30" as="geometry" />
        </mxCell>
        <mxCell id="JB43rIkyLXnSicfYQR83-135" value="" style="shape=flexArrow;endArrow=classic;html=1;rounded=0;" edge="1" parent="1">
          <mxGeometry width="50" height="50" relative="1" as="geometry">
            <mxPoint x="474" y="934.5" as="sourcePoint" />
            <mxPoint x="524" y="934.5" as="targetPoint" />
          </mxGeometry>
        </mxCell>
        <mxCell id="JB43rIkyLXnSicfYQR83-136" style="edgeStyle=orthogonalEdgeStyle;rounded=0;orthogonalLoop=1;jettySize=auto;html=1;exitX=0;exitY=0.5;exitDx=0;exitDy=0;entryX=0.5;entryY=0;entryDx=0;entryDy=0;" edge="1" parent="1" source="JB43rIkyLXnSicfYQR83-138" target="JB43rIkyLXnSicfYQR83-144">
          <mxGeometry relative="1" as="geometry" />
        </mxCell>
        <mxCell id="JB43rIkyLXnSicfYQR83-137" style="edgeStyle=orthogonalEdgeStyle;rounded=0;orthogonalLoop=1;jettySize=auto;html=1;exitX=1;exitY=0.5;exitDx=0;exitDy=0;" edge="1" parent="1" source="JB43rIkyLXnSicfYQR83-138" target="JB43rIkyLXnSicfYQR83-145">
          <mxGeometry relative="1" as="geometry" />
        </mxCell>
        <mxCell id="JB43rIkyLXnSicfYQR83-138" value="9" style="ellipse;whiteSpace=wrap;html=1;" vertex="1" parent="1">
          <mxGeometry x="516" y="980" width="40" height="30" as="geometry" />
        </mxCell>
        <mxCell id="JB43rIkyLXnSicfYQR83-139" style="edgeStyle=orthogonalEdgeStyle;rounded=0;orthogonalLoop=1;jettySize=auto;html=1;exitX=0;exitY=0.5;exitDx=0;exitDy=0;entryX=0.5;entryY=0;entryDx=0;entryDy=0;" edge="1" parent="1" source="JB43rIkyLXnSicfYQR83-141" target="JB43rIkyLXnSicfYQR83-146">
          <mxGeometry relative="1" as="geometry" />
        </mxCell>
        <mxCell id="JB43rIkyLXnSicfYQR83-140" style="edgeStyle=orthogonalEdgeStyle;rounded=0;orthogonalLoop=1;jettySize=auto;html=1;exitX=1;exitY=0.5;exitDx=0;exitDy=0;entryX=0.5;entryY=0;entryDx=0;entryDy=0;" edge="1" parent="1" source="JB43rIkyLXnSicfYQR83-141" target="JB43rIkyLXnSicfYQR83-147">
          <mxGeometry relative="1" as="geometry" />
        </mxCell>
        <mxCell id="JB43rIkyLXnSicfYQR83-141" value="12" style="ellipse;whiteSpace=wrap;html=1;" vertex="1" parent="1">
          <mxGeometry x="692" y="990" width="40" height="30" as="geometry" />
        </mxCell>
        <mxCell id="JB43rIkyLXnSicfYQR83-142" style="edgeStyle=orthogonalEdgeStyle;rounded=0;orthogonalLoop=1;jettySize=auto;html=1;exitX=0;exitY=0.5;exitDx=0;exitDy=0;entryX=0.5;entryY=0;entryDx=0;entryDy=0;" edge="1" parent="1" source="JB43rIkyLXnSicfYQR83-144" target="JB43rIkyLXnSicfYQR83-148">
          <mxGeometry relative="1" as="geometry" />
        </mxCell>
        <mxCell id="JB43rIkyLXnSicfYQR83-143" style="edgeStyle=orthogonalEdgeStyle;rounded=0;orthogonalLoop=1;jettySize=auto;html=1;exitX=1;exitY=0.5;exitDx=0;exitDy=0;entryX=0.5;entryY=0;entryDx=0;entryDy=0;" edge="1" parent="1" source="JB43rIkyLXnSicfYQR83-144" target="JB43rIkyLXnSicfYQR83-149">
          <mxGeometry relative="1" as="geometry" />
        </mxCell>
        <mxCell id="JB43rIkyLXnSicfYQR83-144" value="8" style="ellipse;whiteSpace=wrap;html=1;" vertex="1" parent="1">
          <mxGeometry x="474" y="1040" width="40" height="30" as="geometry" />
        </mxCell>
        <mxCell id="JB43rIkyLXnSicfYQR83-152" style="edgeStyle=orthogonalEdgeStyle;rounded=0;orthogonalLoop=1;jettySize=auto;html=1;exitX=1;exitY=0.5;exitDx=0;exitDy=0;entryX=0.5;entryY=0;entryDx=0;entryDy=0;" edge="1" parent="1" source="JB43rIkyLXnSicfYQR83-145" target="JB43rIkyLXnSicfYQR83-150">
          <mxGeometry relative="1" as="geometry" />
        </mxCell>
        <mxCell id="JB43rIkyLXnSicfYQR83-145" value="11" style="ellipse;whiteSpace=wrap;html=1;" vertex="1" parent="1">
          <mxGeometry x="556" y="1040" width="40" height="30" as="geometry" />
        </mxCell>
        <mxCell id="JB43rIkyLXnSicfYQR83-146" value="5" style="ellipse;whiteSpace=wrap;html=1;" vertex="1" parent="1">
          <mxGeometry x="642" y="1040" width="40" height="30" as="geometry" />
        </mxCell>
        <mxCell id="JB43rIkyLXnSicfYQR83-147" value="1" style="ellipse;whiteSpace=wrap;html=1;" vertex="1" parent="1">
          <mxGeometry x="732" y="1040" width="40" height="30" as="geometry" />
        </mxCell>
        <mxCell id="JB43rIkyLXnSicfYQR83-148" value="4" style="ellipse;whiteSpace=wrap;html=1;" vertex="1" parent="1">
          <mxGeometry x="426" y="1100" width="40" height="30" as="geometry" />
        </mxCell>
        <mxCell id="JB43rIkyLXnSicfYQR83-149" value="7" style="ellipse;whiteSpace=wrap;html=1;" vertex="1" parent="1">
          <mxGeometry x="508" y="1100" width="40" height="30" as="geometry" />
        </mxCell>
        <mxCell id="JB43rIkyLXnSicfYQR83-150" value="6" style="ellipse;whiteSpace=wrap;html=1;" vertex="1" parent="1">
          <mxGeometry x="596" y="1100" width="40" height="30" as="geometry" />
        </mxCell>
        <mxCell id="JB43rIkyLXnSicfYQR83-153" style="edgeStyle=orthogonalEdgeStyle;rounded=0;orthogonalLoop=1;jettySize=auto;html=1;exitX=0;exitY=0.5;exitDx=0;exitDy=0;" edge="1" parent="1" source="JB43rIkyLXnSicfYQR83-156" target="JB43rIkyLXnSicfYQR83-160">
          <mxGeometry relative="1" as="geometry" />
        </mxCell>
        <mxCell id="JB43rIkyLXnSicfYQR83-154" style="edgeStyle=orthogonalEdgeStyle;rounded=0;orthogonalLoop=1;jettySize=auto;html=1;exitX=1;exitY=0.5;exitDx=0;exitDy=0;entryX=0.5;entryY=0;entryDx=0;entryDy=0;" edge="1" parent="1" source="JB43rIkyLXnSicfYQR83-156" target="JB43rIkyLXnSicfYQR83-163">
          <mxGeometry relative="1" as="geometry" />
        </mxCell>
        <mxCell id="JB43rIkyLXnSicfYQR83-156" value="18" style="ellipse;whiteSpace=wrap;html=1;" vertex="1" parent="1">
          <mxGeometry x="986" y="920" width="40" height="30" as="geometry" />
        </mxCell>
        <mxCell id="JB43rIkyLXnSicfYQR83-157" value="" style="shape=flexArrow;endArrow=classic;html=1;rounded=0;" edge="1" parent="1">
          <mxGeometry width="50" height="50" relative="1" as="geometry">
            <mxPoint x="858" y="944.5" as="sourcePoint" />
            <mxPoint x="908" y="944.5" as="targetPoint" />
          </mxGeometry>
        </mxCell>
        <mxCell id="JB43rIkyLXnSicfYQR83-158" style="edgeStyle=orthogonalEdgeStyle;rounded=0;orthogonalLoop=1;jettySize=auto;html=1;exitX=0;exitY=0.5;exitDx=0;exitDy=0;entryX=0.5;entryY=0;entryDx=0;entryDy=0;" edge="1" parent="1" source="JB43rIkyLXnSicfYQR83-160" target="JB43rIkyLXnSicfYQR83-166">
          <mxGeometry relative="1" as="geometry" />
        </mxCell>
        <mxCell id="JB43rIkyLXnSicfYQR83-159" style="edgeStyle=orthogonalEdgeStyle;rounded=0;orthogonalLoop=1;jettySize=auto;html=1;exitX=1;exitY=0.5;exitDx=0;exitDy=0;" edge="1" parent="1" source="JB43rIkyLXnSicfYQR83-160" target="JB43rIkyLXnSicfYQR83-168">
          <mxGeometry relative="1" as="geometry" />
        </mxCell>
        <mxCell id="JB43rIkyLXnSicfYQR83-160" value="11" style="ellipse;whiteSpace=wrap;html=1;" vertex="1" parent="1">
          <mxGeometry x="900" y="990" width="40" height="30" as="geometry" />
        </mxCell>
        <mxCell id="JB43rIkyLXnSicfYQR83-161" style="edgeStyle=orthogonalEdgeStyle;rounded=0;orthogonalLoop=1;jettySize=auto;html=1;exitX=0;exitY=0.5;exitDx=0;exitDy=0;entryX=0.5;entryY=0;entryDx=0;entryDy=0;" edge="1" parent="1" source="JB43rIkyLXnSicfYQR83-163" target="JB43rIkyLXnSicfYQR83-169">
          <mxGeometry relative="1" as="geometry" />
        </mxCell>
        <mxCell id="JB43rIkyLXnSicfYQR83-162" style="edgeStyle=orthogonalEdgeStyle;rounded=0;orthogonalLoop=1;jettySize=auto;html=1;exitX=1;exitY=0.5;exitDx=0;exitDy=0;entryX=0.5;entryY=0;entryDx=0;entryDy=0;" edge="1" parent="1" source="JB43rIkyLXnSicfYQR83-163" target="JB43rIkyLXnSicfYQR83-170">
          <mxGeometry relative="1" as="geometry" />
        </mxCell>
        <mxCell id="JB43rIkyLXnSicfYQR83-163" value="12" style="ellipse;whiteSpace=wrap;html=1;" vertex="1" parent="1">
          <mxGeometry x="1076" y="1000" width="40" height="30" as="geometry" />
        </mxCell>
        <mxCell id="JB43rIkyLXnSicfYQR83-164" style="edgeStyle=orthogonalEdgeStyle;rounded=0;orthogonalLoop=1;jettySize=auto;html=1;exitX=0;exitY=0.5;exitDx=0;exitDy=0;entryX=0.5;entryY=0;entryDx=0;entryDy=0;" edge="1" parent="1" source="JB43rIkyLXnSicfYQR83-166" target="JB43rIkyLXnSicfYQR83-171">
          <mxGeometry relative="1" as="geometry" />
        </mxCell>
        <mxCell id="JB43rIkyLXnSicfYQR83-165" style="edgeStyle=orthogonalEdgeStyle;rounded=0;orthogonalLoop=1;jettySize=auto;html=1;exitX=1;exitY=0.5;exitDx=0;exitDy=0;entryX=0.5;entryY=0;entryDx=0;entryDy=0;" edge="1" parent="1" source="JB43rIkyLXnSicfYQR83-166" target="JB43rIkyLXnSicfYQR83-172">
          <mxGeometry relative="1" as="geometry" />
        </mxCell>
        <mxCell id="JB43rIkyLXnSicfYQR83-166" value="8" style="ellipse;whiteSpace=wrap;html=1;" vertex="1" parent="1">
          <mxGeometry x="858" y="1050" width="40" height="30" as="geometry" />
        </mxCell>
        <mxCell id="JB43rIkyLXnSicfYQR83-167" style="edgeStyle=orthogonalEdgeStyle;rounded=0;orthogonalLoop=1;jettySize=auto;html=1;exitX=1;exitY=0.5;exitDx=0;exitDy=0;entryX=0.5;entryY=0;entryDx=0;entryDy=0;" edge="1" parent="1" source="JB43rIkyLXnSicfYQR83-168" target="JB43rIkyLXnSicfYQR83-173">
          <mxGeometry relative="1" as="geometry" />
        </mxCell>
        <mxCell id="JB43rIkyLXnSicfYQR83-168" value="9" style="ellipse;whiteSpace=wrap;html=1;" vertex="1" parent="1">
          <mxGeometry x="940" y="1050" width="40" height="30" as="geometry" />
        </mxCell>
        <mxCell id="JB43rIkyLXnSicfYQR83-169" value="5" style="ellipse;whiteSpace=wrap;html=1;" vertex="1" parent="1">
          <mxGeometry x="1026" y="1050" width="40" height="30" as="geometry" />
        </mxCell>
        <mxCell id="JB43rIkyLXnSicfYQR83-170" value="1" style="ellipse;whiteSpace=wrap;html=1;" vertex="1" parent="1">
          <mxGeometry x="1116" y="1050" width="40" height="30" as="geometry" />
        </mxCell>
        <mxCell id="JB43rIkyLXnSicfYQR83-171" value="4" style="ellipse;whiteSpace=wrap;html=1;" vertex="1" parent="1">
          <mxGeometry x="810" y="1110" width="40" height="30" as="geometry" />
        </mxCell>
        <mxCell id="JB43rIkyLXnSicfYQR83-172" value="7" style="ellipse;whiteSpace=wrap;html=1;" vertex="1" parent="1">
          <mxGeometry x="892" y="1110" width="40" height="30" as="geometry" />
        </mxCell>
        <mxCell id="JB43rIkyLXnSicfYQR83-173" value="6" style="ellipse;whiteSpace=wrap;html=1;" vertex="1" parent="1">
          <mxGeometry x="980" y="1110" width="40" height="30" as="geometry" />
        </mxCell>
        <mxCell id="JB43rIkyLXnSicfYQR83-174" value="&lt;div style=&quot;background-color: rgb(31, 31, 31); font-family: Consolas, &amp;quot;Courier New&amp;quot;, monospace; font-size: 14px; line-height: 19px; color: rgb(204, 204, 204);&quot;&gt;&lt;br&gt;&lt;/div&gt;" style="text;html=1;strokeColor=none;fillColor=none;align=left;verticalAlign=middle;whiteSpace=wrap;rounded=0;" vertex="1" parent="1">
          <mxGeometry x="86" y="1160" width="550" height="440" as="geometry" />
        </mxCell>
        <mxCell id="JB43rIkyLXnSicfYQR83-175" value="&lt;div style=&quot;background-color: rgb(31, 31, 31); font-family: Consolas, &amp;quot;Courier New&amp;quot;, monospace; font-size: 14px; line-height: 19px;&quot;&gt;&lt;div style=&quot;&quot;&gt;&lt;font color=&quot;#cccccc&quot;&gt;int &lt;/font&gt;&lt;span style=&quot;color: rgb(220, 220, 170);&quot;&gt;remove_max_element&lt;/span&gt;&lt;font color=&quot;#cccccc&quot;&gt;(&lt;/font&gt;&lt;font color=&quot;#569cd6&quot;&gt;)&lt;/font&gt;&lt;font color=&quot;#cccccc&quot;&gt;{&lt;/font&gt;&lt;/div&gt;&lt;div style=&quot;&quot;&gt;&lt;span style=&quot;color: rgb(204, 204, 204);&quot;&gt;&amp;nbsp; &amp;nbsp; &lt;span style=&quot;color: #569cd6;&quot;&gt;int&lt;/span&gt; &lt;span style=&quot;color: #9cdcfe;&quot;&gt;max&lt;/span&gt; &lt;span style=&quot;color: #d4d4d4;&quot;&gt;=&lt;/span&gt; &lt;span style=&quot;color: #9cdcfe;&quot;&gt;heaptree&lt;/span&gt;[&lt;/span&gt;&lt;font color=&quot;#9cdcfe&quot;&gt;1&lt;/font&gt;&lt;font color=&quot;#cccccc&quot;&gt;];&lt;/font&gt;&lt;/div&gt;&lt;div style=&quot;&quot;&gt;&lt;span style=&quot;color: rgb(204, 204, 204);&quot;&gt;&amp;nbsp; &amp;nbsp; &lt;span style=&quot;color: #9cdcfe;&quot;&gt;heaptree&lt;/span&gt;[&lt;/span&gt;&lt;font color=&quot;#9cdcfe&quot;&gt;1&lt;/font&gt;&lt;font color=&quot;#cccccc&quot;&gt;] &lt;/font&gt;&lt;span style=&quot;color: rgb(212, 212, 212);&quot;&gt;=&lt;/span&gt; &lt;span style=&quot;color: rgb(156, 220, 254);&quot;&gt;heaptree&lt;/span&gt;&lt;font color=&quot;#cccccc&quot;&gt;[&lt;/font&gt;&lt;span style=&quot;color: rgb(156, 220, 254);&quot;&gt;index&lt;/span&gt;&lt;font color=&quot;#cccccc&quot;&gt;]; &lt;/font&gt;&lt;/div&gt;&lt;div style=&quot;color: rgb(204, 204, 204);&quot;&gt;&amp;nbsp; &amp;nbsp; &lt;span style=&quot;color: #9cdcfe;&quot;&gt;heaptree&lt;/span&gt;[&lt;span style=&quot;color: #9cdcfe;&quot;&gt;index--&lt;/span&gt;] &lt;span style=&quot;color: #d4d4d4;&quot;&gt;=&lt;/span&gt; &lt;span style=&quot;color: #ce9178;&quot;&gt;&#39;/0&#39;&lt;/span&gt;;&lt;/div&gt;&lt;div style=&quot;color: rgb(204, 204, 204);&quot;&gt;&amp;nbsp; &amp;nbsp; &lt;span style=&quot;color: #dcdcaa;&quot;&gt;sink&lt;/span&gt;(&lt;span style=&quot;color: #9cdcfe;&quot;&gt;n&lt;/span&gt;);&lt;/div&gt;&lt;div style=&quot;color: rgb(204, 204, 204);&quot;&gt;&amp;nbsp; &amp;nbsp; &lt;span style=&quot;color: #c586c0;&quot;&gt;return&lt;/span&gt; &lt;span style=&quot;color: #9cdcfe;&quot;&gt;max&lt;/span&gt;;&lt;/div&gt;&lt;div style=&quot;color: rgb(204, 204, 204);&quot;&gt;}&lt;/div&gt;&lt;br&gt;&lt;div style=&quot;color: rgb(204, 204, 204);&quot;&gt;&lt;span style=&quot;color: #569cd6;&quot;&gt;void&lt;/span&gt; &lt;span style=&quot;color: #dcdcaa;&quot;&gt;sink&lt;/span&gt;(&lt;span style=&quot;color: #569cd6;&quot;&gt;int&lt;/span&gt; &lt;span style=&quot;color: #9cdcfe;&quot;&gt;n&lt;/span&gt;){&lt;/div&gt;&lt;div style=&quot;color: rgb(204, 204, 204);&quot;&gt;&amp;nbsp; &amp;nbsp; &lt;span style=&quot;color: #c586c0;&quot;&gt;while&lt;/span&gt;(&lt;span style=&quot;color: #9cdcfe;&quot;&gt;heaptree&lt;/span&gt;[&lt;span style=&quot;color: #9cdcfe;&quot;&gt;n&lt;/span&gt;&lt;span style=&quot;color: #d4d4d4;&quot;&gt;*&lt;/span&gt;&lt;span style=&quot;color: #b5cea8;&quot;&gt;2&lt;/span&gt;] &lt;span style=&quot;color: #d4d4d4;&quot;&gt;&amp;gt;&lt;/span&gt; &lt;span style=&quot;color: #9cdcfe;&quot;&gt;heaptree&lt;/span&gt;[&lt;span style=&quot;color: #9cdcfe;&quot;&gt;n&lt;/span&gt;] &lt;span style=&quot;color: #d4d4d4;&quot;&gt;||&lt;/span&gt; &lt;span style=&quot;color: #9cdcfe;&quot;&gt;heaptree&lt;/span&gt;[&lt;span style=&quot;color: #9cdcfe;&quot;&gt;n&lt;/span&gt;&lt;span style=&quot;color: #d4d4d4;&quot;&gt;*&lt;/span&gt;&lt;span style=&quot;color: #b5cea8;&quot;&gt;2&lt;/span&gt;&lt;span style=&quot;color: #d4d4d4;&quot;&gt;+&lt;/span&gt;&lt;span style=&quot;color: #b5cea8;&quot;&gt;1&lt;/span&gt;] &lt;span style=&quot;color: #d4d4d4;&quot;&gt;&amp;gt;&lt;/span&gt; &lt;span style=&quot;color: #9cdcfe;&quot;&gt;heaptree&lt;/span&gt;[&lt;span style=&quot;color: #9cdcfe;&quot;&gt;n&lt;/span&gt;]){&lt;/div&gt;&lt;div style=&quot;color: rgb(204, 204, 204);&quot;&gt;&amp;nbsp; &amp;nbsp; &amp;nbsp; &amp;nbsp; &lt;span style=&quot;color: #c586c0;&quot;&gt;if&lt;/span&gt; (&lt;span style=&quot;color: #9cdcfe;&quot;&gt;heaptree&lt;/span&gt;[&lt;span style=&quot;color: #9cdcfe;&quot;&gt;n&lt;/span&gt;&lt;span style=&quot;color: #d4d4d4;&quot;&gt;*&lt;/span&gt;&lt;span style=&quot;color: #b5cea8;&quot;&gt;2&lt;/span&gt;] &lt;span style=&quot;color: #d4d4d4;&quot;&gt;&amp;gt;&lt;/span&gt; &lt;span style=&quot;color: #9cdcfe;&quot;&gt;heaptree&lt;/span&gt;[&lt;span style=&quot;color: #9cdcfe;&quot;&gt;n&lt;/span&gt;&lt;span style=&quot;color: #d4d4d4;&quot;&gt;*&lt;/span&gt;&lt;span style=&quot;color: #b5cea8;&quot;&gt;2&lt;/span&gt;&lt;span style=&quot;color: #d4d4d4;&quot;&gt;+&lt;/span&gt;&lt;span style=&quot;color: #b5cea8;&quot;&gt;1&lt;/span&gt;]){&lt;/div&gt;&lt;div style=&quot;color: rgb(204, 204, 204);&quot;&gt;&amp;nbsp; &amp;nbsp; &amp;nbsp; &amp;nbsp; &amp;nbsp; &amp;nbsp; &lt;span style=&quot;color: #dcdcaa;&quot;&gt;swap&lt;/span&gt;(&lt;span style=&quot;color: #9cdcfe;&quot;&gt;heaptree&lt;/span&gt;[&lt;span style=&quot;color: #9cdcfe;&quot;&gt;n&lt;/span&gt;] , &lt;span style=&quot;color: #9cdcfe;&quot;&gt;heaptree&lt;/span&gt;[&lt;span style=&quot;color: #9cdcfe;&quot;&gt;n&lt;/span&gt;&lt;span style=&quot;color: #d4d4d4;&quot;&gt;*&lt;/span&gt;&lt;span style=&quot;color: #b5cea8;&quot;&gt;2&lt;/span&gt;]);&lt;/div&gt;&lt;div style=&quot;color: rgb(204, 204, 204);&quot;&gt;&amp;nbsp; &amp;nbsp; &amp;nbsp; &amp;nbsp; &amp;nbsp; &amp;nbsp; &lt;span style=&quot;color: #9cdcfe;&quot;&gt;n&lt;/span&gt; &lt;span style=&quot;color: #d4d4d4;&quot;&gt;=&lt;/span&gt; &lt;span style=&quot;color: #9cdcfe;&quot;&gt;n&lt;/span&gt;&lt;span style=&quot;color: #d4d4d4;&quot;&gt;*&lt;/span&gt;&lt;span style=&quot;color: #b5cea8;&quot;&gt;2&lt;/span&gt;;&lt;/div&gt;&lt;div style=&quot;color: rgb(204, 204, 204);&quot;&gt;&amp;nbsp; &amp;nbsp; &amp;nbsp; &amp;nbsp; }&lt;span style=&quot;color: #c586c0;&quot;&gt;else&lt;/span&gt;{&lt;/div&gt;&lt;div style=&quot;color: rgb(204, 204, 204);&quot;&gt;&amp;nbsp; &amp;nbsp; &amp;nbsp; &amp;nbsp; &amp;nbsp; &amp;nbsp; &lt;span style=&quot;color: #dcdcaa;&quot;&gt;swap&lt;/span&gt;(&lt;span style=&quot;color: #9cdcfe;&quot;&gt;heaptree&lt;/span&gt;[&lt;span style=&quot;color: #9cdcfe;&quot;&gt;n&lt;/span&gt;] , &lt;span style=&quot;color: #9cdcfe;&quot;&gt;heaptree&lt;/span&gt;[&lt;span style=&quot;color: #9cdcfe;&quot;&gt;n&lt;/span&gt;&lt;span style=&quot;color: #d4d4d4;&quot;&gt;*&lt;/span&gt;&lt;span style=&quot;color: #b5cea8;&quot;&gt;2&lt;/span&gt;&lt;span style=&quot;color: #d4d4d4;&quot;&gt;+&lt;/span&gt;&lt;span style=&quot;color: #b5cea8;&quot;&gt;1&lt;/span&gt;]);&lt;/div&gt;&lt;div style=&quot;color: rgb(204, 204, 204);&quot;&gt;&amp;nbsp; &amp;nbsp; &amp;nbsp; &amp;nbsp; &amp;nbsp; &amp;nbsp; &lt;span style=&quot;color: #9cdcfe;&quot;&gt;n&lt;/span&gt; &lt;span style=&quot;color: #d4d4d4;&quot;&gt;=&lt;/span&gt; &lt;span style=&quot;color: #9cdcfe;&quot;&gt;n&lt;/span&gt;&lt;span style=&quot;color: #d4d4d4;&quot;&gt;*&lt;/span&gt;&lt;span style=&quot;color: #b5cea8;&quot;&gt;2&lt;/span&gt; &lt;span style=&quot;color: #d4d4d4;&quot;&gt;+&lt;/span&gt;&lt;span style=&quot;color: #b5cea8;&quot;&gt;1&lt;/span&gt;;&lt;/div&gt;&lt;div style=&quot;color: rgb(204, 204, 204);&quot;&gt;&amp;nbsp; &amp;nbsp; &amp;nbsp; &amp;nbsp; }&lt;/div&gt;&lt;div style=&quot;color: rgb(204, 204, 204);&quot;&gt;&amp;nbsp; &amp;nbsp; }&lt;/div&gt;&lt;div style=&quot;color: rgb(204, 204, 204);&quot;&gt;}&lt;/div&gt;&lt;div style=&quot;color: rgb(204, 204, 204);&quot;&gt;&lt;br&gt;&lt;/div&gt;&lt;div style=&quot;color: rgb(204, 204, 204);&quot;&gt;int findMaxElement(){&lt;/div&gt;&lt;div style=&quot;color: rgb(204, 204, 204);&quot;&gt;&amp;nbsp; &amp;nbsp; return heaptree[1];&lt;/div&gt;&lt;div style=&quot;color: rgb(204, 204, 204);&quot;&gt;}&lt;/div&gt;&lt;/div&gt;" style="text;html=1;align=left;verticalAlign=middle;resizable=0;points=[];autosize=1;strokeColor=none;fillColor=none;" vertex="1" parent="1">
          <mxGeometry x="-51" y="1140" width="580" height="450" as="geometry" />
        </mxCell>
      </root>
    </mxGraphModel>
  </diagram>
</mxfile>
